# xmcd
#
# Track frame offsets: 
#        183
#        11940
#        36065
#        49255
#        69885
#        86093
#        97990
#        117660
#        136238
#        148235
#
# Disc length: 2224 seconds
#
# Revision: 3
# Processed by: cddbd v1.5.2PL0 Copyright (c) Steve Scherf et al.
# Submitted via: ExactAudioCopy v0.90b4
#
DISCID=8d08ae0a
DTITLE=Hank Williams, Jr. - Strong Stuff
DYEAR=1983
DGENRE=
TTITLE0=Gonna Go Huntin' Tonight
TTITLE1=La Grange
TTITLE2=A Whole Lot Of Hank
TTITLE3=Made In The Shade
TTITLE4=Leave Them Boys Alone
TTITLE5=The Girl In The Front Row At Fort Worth
TTITLE6=The Homecoming Queen
TTITLE7=Blue Jean Blues
TTITLE8=Twodot Montana
TTITLE9=In The Arms Of Cocaine
EXTD=Originally Released 1983\nCD Edition Released 1987 ??\nCurb's ''O
EXTD=riginal Classic Hits'' CD Edition Released March 14, 1995\n\nAMG 
EXTD=EXPERT REVIEW:  N/A\n\nAMAZON.COM CUSTOMER REVIEW\nA perfect Sout
EXTD=hern boy CD,it's a classic, March 2, 2007 \nBy  J. Owens "poolrid
EXTD=er" (TEXAS,USA]\nIn the early 80's, the hard rock band I was in l
EXTD=istened to this during our "personal" time, away from everybody e
EXTD=lse,just to get our heads all in the right place. \nEvery song is
EXTD=good, it's classic Hank Jr. and the ZZ Top and Skynyrd covers ar
EXTD=e done with reverence. If you like Hank Jr. at all, you gotta hav
EXTD=e this one. \n\n\nAMAZON.COM CUSTOMER REVIEW\nStrong stuff indeed
EXTD=, April 27, 2005 \nBy  P D Harris "Pete the music and horse racin
EXTD=g fan" (Leicester England]\nWith two covers of ZZ Top songs (the 
EXTD=moody Blue jean blues and the hard-rocking La Grange) and one cov
EXTD=er of a Lynyrd Skynyrd song (Made in the shade), Hank delivers on
EXTD=e of his finest albums. Gotta go hunting tonight and Leave them b
EXTD=oys alone (featuring Ernest Tubb and Waylon Jennings) were the bi
EXTD=g country hits but they aren't any better than the other tracks h
EXTD=ere, all of a very high quality. \n\nThe first three tracks rock 
EXTD=hard. The pace drops after that but the quality doesn't. Particul
EXTD=arly worth mentioning are The homecoming queen (a touching song a
EXTD=bout Hank's love for his woman), Two dot Montana (about some trou
EXTD=ble Hank was in - fictitious, I hope) and In the arms of cocaine 
EXTD=(about drug addiction). \n\nThis is in many ways typical of Hank'
EXTD=s albums - many originals with a few well-chosen covers - but the
EXTD=re are some great songs here. If you enjoy Hank's music, you'll e
EXTD=njoy this album. \n\n\nHalf.com Details \nProducer: Hank Williams
EXTD=, Jr., Jimmy Bowen \n\nAlbum Notes\nThis is part of Curb's Boceph
EXTD=us series.\n\nHis Rowdiness is in fine form on STRONG STUFF, an a
EXTD=lbum that tilts a little more heavily to the Southern rock side o
EXTD=f Williams' musical personality. The inclusion of two Z.Z. Top co
EXTD=vers (the John Lee Hooker-ish "La Grange" and "Blue Jean Blues" g
EXTD=ives away the game.\n\n"A Whole Lot of Hank" is a tribute to Will
EXTD=iams' dad, perhaps included in lieu of the usual cover of one of 
EXTD=Williams Sr.'s hits. Other highlights include the groupie ballad 
EXTD="The Girl in the Front Row at Fort Worth" and the self-referentia
EXTD=l, ain't-we-Outlaws epic "Leave Them Boys Alone," featuring vocal
EXTD=assists from Waylon Jennings and country legend Ernest Tubb.
EXTT0=
EXTT1=
EXTT2=
EXTT3=
EXTT4=
EXTT5=
EXTT6=
EXTT7=
EXTT8=
EXTT9=
PLAYORDER=
